<?xml version='1.0' encoding='UTF-8'?>
<svg xmlns="http://www.w3.org/2000/svg" width="850.8pt" height="1006.0pt" viewBox="-29.00 -11.00 850.80 1006.00">
<g id="graph0" class="graph" transform="scale(1 1) rotate(0) translate(4 950)">
<title>clean_fix_style</title>
<polygon fill="white" stroke="none" points="-4,4 -4,-950 795.67,-950 795.67,4 -4,4" />

<rect x="-18.0" y="-895.4" width="208.8" height="461.2" fill="none" stroke="#95a5a6" stroke-width="1.5" stroke-dasharray="6,4" rx="4.0" /><rect x="214.3" y="-895.4" width="249.8" height="639.2" fill="none" stroke="#95a5a6" stroke-width="1.5" stroke-dasharray="6,4" rx="4.0" /><rect x="487.6" y="-895.4" width="315.2" height="555.2" fill="none" stroke="#95a5a6" stroke-width="1.5" stroke-dasharray="6,4" rx="4.0" /><rect x="288.0" y="-200.0" width="208.8" height="230.0" fill="none" stroke="#95a5a6" stroke-width="1.5" stroke-dasharray="6,4" rx="4.0" /><g id="node1" class="node">
<title>start</title>
<ellipse fill="#f0e6ff" stroke="#8e44ad" cx="86.4" cy="-928" rx="79.2" ry="18" />
<text xml:space="preserve" text-anchor="middle" x="86.4" y="-924.12" font-family="Helvetica,sans-Serif" font-size="10.00">Clean-fix Build (4:00 AM)</text>
</g>

<g id="node2" class="node">
<title>foreach_project</title>
<polygon fill="#e8f4f8" stroke="#2980b9" points="172.8,-851.4 0,-851.4 0,-804.6 172.8,-804.6 172.8,-851.4" />
<text xml:space="preserve" text-anchor="middle" x="86.4" y="-835.38" font-family="Helvetica,sans-Serif" font-size="10.00">For each ~/rust/*</text>
<text xml:space="preserve" text-anchor="middle" x="86.4" y="-824.12" font-family="Helvetica,sans-Serif" font-size="10.00">(skip excluded, worktrees,</text>
<text xml:space="preserve" text-anchor="middle" x="86.4" y="-812.88" font-family="Helvetica,sans-Serif" font-size="10.00">_style_fix, unmodified)</text>
</g>

<g id="edge1" class="edge">
<title>start-&gt;foreach_project</title>
<path fill="none" stroke="black" d="M86.4,-909.66C86.4,-896.72 86.4,-878.97 86.4,-863.33" />
<polygon fill="black" stroke="black" points="89.9,-863.4 86.4,-853.4 82.9,-863.4 89.9,-863.4" />
</g>

<g id="node3" class="node">
<title>clean</title>
<polygon fill="#e8f4f8" stroke="#2980b9" points="172.8,-776 0,-776 0,-740 172.8,-740 172.8,-776" />
<text xml:space="preserve" text-anchor="middle" x="86.4" y="-754.12" font-family="Helvetica,sans-Serif" font-size="10.00">cargo clean</text>
</g>

<g id="edge2" class="edge">
<title>foreach_project-&gt;clean</title>
<path fill="none" stroke="black" d="M86.4,-804.3C86.4,-798.84 86.4,-792.96 86.4,-787.29" />
<polygon fill="black" stroke="black" points="89.9,-787.65 86.4,-777.65 82.9,-787.65 89.9,-787.65" />
</g>

<g id="node4" class="node">
<title>build</title>
<polygon fill="#e8f4f8" stroke="#2980b9" points="172.8,-716 0,-716 0,-680 172.8,-680 172.8,-716" />
<text xml:space="preserve" text-anchor="middle" x="86.4" y="-694.12" font-family="Helvetica,sans-Serif" font-size="10.00">cargo build --workspace</text>
</g>

<g id="edge3" class="edge">
<title>clean-&gt;build</title>
<path fill="none" stroke="black" d="M86.4,-739.67C86.4,-735.83 86.4,-731.69 86.4,-727.56" />
<polygon fill="black" stroke="black" points="89.9,-727.73 86.4,-717.73 82.9,-727.73 89.9,-727.73" />
</g>

<g id="node5" class="node">
<title>clippy_build</title>
<polygon fill="#e8f4f8" stroke="#2980b9" points="172.8,-656 0,-656 0,-620 172.8,-620 172.8,-656" />
<text xml:space="preserve" text-anchor="middle" x="86.4" y="-634.13" font-family="Helvetica,sans-Serif" font-size="10.00">cargo clippy -D warnings</text>
</g>

<g id="edge4" class="edge">
<title>build-&gt;clippy_build</title>
<path fill="none" stroke="black" d="M86.4,-679.67C86.4,-675.83 86.4,-671.69 86.4,-667.56" />
<polygon fill="black" stroke="black" points="89.9,-667.73 86.4,-657.73 82.9,-667.73 89.9,-667.73" />
</g>

<g id="node6" class="node">
<title>warmup</title>
<polygon fill="#e8f4f8" stroke="#2980b9" points="172.8,-592.8 0,-592.8 0,-553.2 172.8,-553.2 172.8,-592.8" />
<text xml:space="preserve" text-anchor="middle" x="86.4" y="-574.75" font-family="Helvetica,sans-Serif" font-size="10.00">Warmup</text>
<text xml:space="preserve" text-anchor="middle" x="86.4" y="-563.5" font-family="Helvetica,sans-Serif" font-size="10.00">(launch + kill selected apps)</text>
</g>

<g id="edge5" class="edge">
<title>clippy_build-&gt;warmup</title>
<path fill="none" stroke="black" d="M86.4,-619.55C86.4,-614.77 86.4,-609.5 86.4,-604.27" />
<polygon fill="black" stroke="black" points="89.9,-604.61 86.4,-594.61 82.9,-604.61 89.9,-604.61" />
</g>

<g id="node7" class="node">
<title>style_enabled</title>
<polygon fill="#fef9e7" stroke="#f39c12" points="86.4,-521.8 34.68,-493 86.4,-464.2 138.12,-493 86.4,-521.8" />
<text xml:space="preserve" text-anchor="middle" x="86.4" y="-494.75" font-family="Helvetica,sans-Serif" font-size="10.00">style_eval</text>
<text xml:space="preserve" text-anchor="middle" x="86.4" y="-483.5" font-family="Helvetica,sans-Serif" font-size="10.00">enabled?</text>
</g>

<g id="edge6" class="edge">
<title>warmup-&gt;style_enabled</title>
<path fill="none" stroke="black" d="M86.4,-552.81C86.4,-546.88 86.4,-540.17 86.4,-533.45" />
<polygon fill="black" stroke="black" points="89.9,-533.76 86.4,-523.76 82.9,-533.76 89.9,-533.76" />
</g>

<g id="node8" class="node">
<title>eval_foreach</title>
<polygon fill="#e8f4f8" stroke="#2980b9" points="425.6,-846 252.8,-846 252.8,-810 425.6,-810 425.6,-846" />
<text xml:space="preserve" text-anchor="middle" x="339.2" y="-824.12" font-family="Helvetica,sans-Serif" font-size="10.00">For each project (parallel)</text>
</g>

<g id="edge7" class="edge">
<title>style_enabled-&gt;eval_foreach</title>
<path fill="none" stroke="black" d="M116.75,-505.25C136.42,-514.63 161.14,-529.4 176.5,-549.5 224.99,-612.97 188.14,-652.64 228.61,-721.5 247.77,-754.1 279.66,-783.28 304.29,-802.81" />
<polygon fill="black" stroke="black" points="302.08,-805.53 312.13,-808.89 306.37,-800 302.08,-805.53" />
<text xml:space="preserve" text-anchor="middle" x="201.6" y="-659.44" font-family="Helvetica,sans-Serif" font-size="8.00">yes</text>
</g>

<g id="node25" class="node">
<title>report</title>
<ellipse fill="#f0e6ff" stroke="#8e44ad" cx="392.4" cy="-233" rx="79.2" ry="18" />
<text xml:space="preserve" text-anchor="middle" x="392.4" y="-229.12" font-family="Helvetica,sans-Serif" font-size="10.00">Generate Clean-fix Report</text>
</g>

<g id="edge8" class="edge">
<title>style_enabled-&gt;report</title>
<path fill="none" stroke="black" d="M97.95,-470.48C120.98,-427.73 176.69,-334.49 249.1,-282.5 270.7,-266.99 297.58,-256.01 322.2,-248.4" />
<polygon fill="black" stroke="black" points="322.9,-251.85 331.5,-245.67 320.92,-245.13 322.9,-251.85" />
<text xml:space="preserve" text-anchor="middle" x="186.38" y="-337.11" font-family="Helvetica,sans-Serif" font-size="8.00">no</text>
</g>

<g id="node9" class="node">
<title>ttl_gate</title>
<polygon fill="#fef9e7" stroke="#f39c12" points="339.2,-792.4 273.26,-760 339.2,-727.6 405.14,-760 339.2,-792.4" />
<text xml:space="preserve" text-anchor="middle" x="339.2" y="-761.75" font-family="Helvetica,sans-Serif" font-size="10.00">due-units gate:</text>
<text xml:space="preserve" text-anchor="middle" x="339.2" y="-750.5" font-family="Helvetica,sans-Serif" font-size="10.00">any unit due?</text>
</g>

<g id="edge9" class="edge">
<title>eval_foreach-&gt;ttl_gate</title>
<path fill="none" stroke="black" d="M339.2,-809.78C339.2,-807.97 339.2,-806.08 339.2,-804.14" />
<polygon fill="black" stroke="black" points="342.7,-804.23 339.2,-794.23 335.7,-804.23 342.7,-804.23" />
</g>

<g id="node10" class="node">
<title>load_style</title>
<polygon fill="#e8f4f8" stroke="#2980b9" points="446.09,-717.8 232.31,-717.8 232.31,-678.2 446.09,-678.2 446.09,-717.8" />
<text xml:space="preserve" text-anchor="middle" x="339.2" y="-699.75" font-family="Helvetica,sans-Serif" font-size="10.00">Load style guide</text>
<text xml:space="preserve" text-anchor="middle" x="339.2" y="-688.5" font-family="Helvetica,sans-Serif" font-size="10.00">~/.claude/scripts/rust_style/load-rust-style.sh</text>
</g>

<g id="edge10" class="edge">
<title>ttl_gate-&gt;load_style</title>
<path fill="none" stroke="black" d="M339.2,-727.18C339.2,-727.09 339.2,-726.99 339.2,-726.89" />
<polygon fill="black" stroke="black" points="342.7,-729.49 339.2,-719.49 335.7,-729.49 342.7,-729.49" />
<text xml:space="preserve" text-anchor="middle" x="326.82" y="-719.33" font-family="Helvetica,sans-Serif" font-size="8.00">1+ due</text>
</g>

<g id="edge11" class="edge">
<title>ttl_gate-&gt;report</title>
<path fill="none" stroke="black" d="M282.69,-765.11C276.88,-764.98 271.99,-764.42 268.93,-763.2 244.97,-753.68 238.27,-745.4 228.61,-721.5 228.61,-721.5 249.1,-402.5 249.1,-402.5 256.54,-395.26 428.48,-400.85 435.8,-393.49 444.81,-384.44 445.57,-290.53 440.77,-278.7 438.69,-273.56 431.38,-265.86 423.05,-258.24" />
<polygon fill="black" stroke="black" points="425.5,-255.73 415.68,-251.75 420.87,-260.99 425.5,-255.73" />
<path fill="none" stroke="black" d="M394.31,-754.29C415.2,-749.13 437.01,-739.48 449.79,-721.5 471.51,-690.94 596.5,-745.72 429.3,-282.5 426.4,-274.46 421.72,-266.62 416.66,-259.65" />
<polygon fill="black" stroke="black" points="419.52,-257.62 410.58,-251.92 414.01,-261.94 419.52,-257.62" />
<text xml:space="preserve" text-anchor="middle" x="314.68" y="-390.44" font-family="Helvetica,sans-Serif" font-size="8.00">none due</text>
<text xml:space="preserve" text-anchor="middle" x="314.68" y="-381.44" font-family="Helvetica,sans-Serif" font-size="8.00">(skip, no agent)</text>
</g>

<g id="edge12" class="edge">
<title>ttl_gate-&gt;report</title>
<path fill="none" stroke="#e74c3c" d="M394.31,-754.29C415.2,-749.13 437.01,-739.48 449.79,-721.5 471.51,-690.94 596.5,-745.72 429.3,-282.5 426.4,-274.46 421.72,-266.62 416.66,-259.65" />
<polygon fill="#e74c3c" stroke="#e74c3c" points="419.52,-257.62 410.58,-251.92 414.01,-261.94 419.52,-257.62" />
<text xml:space="preserve" text-anchor="middle" x="465.97" y="-552.62" font-family="Helvetica,sans-Serif" font-size="8.00" fill="#e74c3c">gate crashed: ERROR</text>
<text xml:space="preserve" text-anchor="middle" x="465.97" y="-543.62" font-family="Helvetica,sans-Serif" font-size="8.00" fill="#e74c3c">(fail-closed, flagged)</text>
</g>

<g id="node11" class="node">
<title>survey</title>
<polygon fill="#e8f4f8" stroke="#2980b9" points="425.6,-658 252.8,-658 252.8,-622 425.6,-622 425.6,-658" />
<text xml:space="preserve" text-anchor="middle" x="339.2" y="-636.12" font-family="Helvetica,sans-Serif" font-size="10.00">Survey project source</text>
</g>

<g id="edge13" class="edge">
<title>load_style-&gt;survey</title>
<path fill="none" stroke="black" d="M339.2,-677.71C339.2,-675.17 339.2,-672.52 339.2,-669.86" />
<polygon fill="black" stroke="black" points="342.7,-669.94 339.2,-659.94 335.7,-669.94 342.7,-669.94" />
</g>

<g id="node12" class="node">
<title>carry_forward</title>
<polygon fill="#e8f4f8" stroke="#2980b9" points="425.6,-601.8 252.8,-601.8 252.8,-562.2 425.6,-562.2 425.6,-601.8" />
<text xml:space="preserve" text-anchor="middle" x="339.2" y="-583.75" font-family="Helvetica,sans-Serif" font-size="10.00">Read pending JSON</text>
<text xml:space="preserve" text-anchor="middle" x="339.2" y="-572.5" font-family="Helvetica,sans-Serif" font-size="10.00">(carry forward valid findings)</text>
</g>

<g id="edge14" class="edge">
<title>survey-&gt;carry_forward</title>
<path fill="none" stroke="black" d="M339.2,-621.65C339.2,-619.02 339.2,-616.25 339.2,-613.45" />
<polygon fill="black" stroke="black" points="342.7,-613.56 339.2,-603.56 335.7,-613.56 342.7,-613.56" />
</g>

<g id="node13" class="node">
<title>check_wt_eval</title>
<polygon fill="#fef9e7" stroke="#f39c12" points="339.2,-536.4 261.77,-504 339.2,-471.6 416.63,-504 339.2,-536.4" />
<text xml:space="preserve" text-anchor="middle" x="339.2" y="-505.75" font-family="Helvetica,sans-Serif" font-size="10.00">style-fix scratch</text>
<text xml:space="preserve" text-anchor="middle" x="339.2" y="-494.5" font-family="Helvetica,sans-Serif" font-size="10.00">evaluation exists?</text>
</g>

<g id="edge15" class="edge">
<title>carry_forward-&gt;check_wt_eval</title>
<path fill="none" stroke="black" d="M339.2,-561.91C339.2,-557.6 339.2,-552.87 339.2,-548.04" />
<polygon fill="black" stroke="black" points="342.7,-548.24 339.2,-538.24 335.7,-548.24 342.7,-548.24" />
</g>

<g id="node14" class="node">
<title>load_wt_eval</title>
<polygon fill="#e8f4f8" stroke="#2980b9" points="425.6,-445.8 252.8,-445.8 252.8,-406.2 425.6,-406.2 425.6,-445.8" />
<text xml:space="preserve" text-anchor="middle" x="339.2" y="-427.75" font-family="Helvetica,sans-Serif" font-size="10.00">Read style-fix scratch</text>
<text xml:space="preserve" text-anchor="middle" x="339.2" y="-416.5" font-family="Helvetica,sans-Serif" font-size="10.00">(exclude these findings)</text>
</g>

<g id="edge16" class="edge">
<title>check_wt_eval-&gt;load_wt_eval</title>
<path fill="none" stroke="black" d="M339.2,-471.37C339.2,-466.85 339.2,-462.21 339.2,-457.7" />
<polygon fill="black" stroke="black" points="342.7,-457.77 339.2,-447.77 335.7,-457.77 342.7,-457.77" />
<text xml:space="preserve" text-anchor="middle" x="333.2" y="-459.95" font-family="Helvetica,sans-Serif" font-size="8.00">yes</text>
</g>

<g id="node15" class="node">
<title>evaluate</title>
<polygon fill="#e8f4f8" stroke="#2980b9" points="425.6,-383.8 252.8,-383.8 252.8,-344.2 425.6,-344.2 425.6,-383.8" />
<text xml:space="preserve" text-anchor="middle" x="339.2" y="-365.75" font-family="Helvetica,sans-Serif" font-size="10.00">Find up to 5 NEW violations</text>
<text xml:space="preserve" text-anchor="middle" x="339.2" y="-354.5" font-family="Helvetica,sans-Serif" font-size="10.00">(skip worktree findings)</text>
</g>

<g id="edge17" class="edge">
<title>check_wt_eval-&gt;evaluate</title>
<path fill="none" stroke="black" d="M296.24,-489.05C278.32,-480.45 259.34,-467.65 249.1,-449.5 238.84,-431.3 237.59,-419.93 249.1,-402.5 251.97,-398.15 255.45,-394.29 259.34,-390.86" />
<polygon fill="black" stroke="black" points="261.34,-393.74 267.24,-384.95 257.14,-388.14 261.34,-393.74" />
<text xml:space="preserve" text-anchor="middle" x="244.58" y="-450.87" font-family="Helvetica,sans-Serif" font-size="8.00">no</text>
</g>

<g id="edge18" class="edge">
<title>load_wt_eval-&gt;evaluate</title>
<path fill="none" stroke="black" d="M339.2,-406.04C339.2,-402.61 339.2,-398.98 339.2,-395.33" />
<polygon fill="black" stroke="black" points="342.7,-395.43 339.2,-385.43 335.7,-395.43 342.7,-395.43" />
</g>

<g id="node16" class="node">
<title>write_eval</title>
<polygon fill="#e8f4f8" stroke="#2980b9" points="425.6,-325.8 252.8,-325.8 252.8,-286.2 425.6,-286.2 425.6,-325.8" />
<text xml:space="preserve" text-anchor="middle" x="339.2" y="-307.75" font-family="Helvetica,sans-Serif" font-size="10.00">Write pending JSON</text>
<text xml:space="preserve" text-anchor="middle" x="339.2" y="-296.5" font-family="Helvetica,sans-Serif" font-size="10.00">(carried + new)</text>
</g>

<g id="edge19" class="edge">
<title>evaluate-&gt;write_eval</title>
<path fill="none" stroke="black" d="M339.2,-343.71C339.2,-341.65 339.2,-339.52 339.2,-337.37" />
<polygon fill="black" stroke="black" points="342.7,-337.49 339.2,-327.49 335.7,-337.49 342.7,-337.49" />
</g>

<g id="node17" class="node">
<title>fix_foreach</title>
<polygon fill="#e8f4f8" stroke="#2980b9" points="731.6,-847.8 558.8,-847.8 558.8,-808.2 731.6,-808.2 731.6,-847.8" />
<text xml:space="preserve" text-anchor="middle" x="645.2" y="-829.75" font-family="Helvetica,sans-Serif" font-size="10.00">For each project with</text>
<text xml:space="preserve" text-anchor="middle" x="645.2" y="-818.5" font-family="Helvetica,sans-Serif" font-size="10.00">pending eval findings</text>
</g>

<g id="edge20" class="edge">
<title>write_eval-&gt;fix_foreach</title>
<path fill="none" stroke="black" d="M411.13,-326.08C417.86,-330.05 424.1,-334.81 429.3,-340.5 567.83,-492.09 422.64,-628.18 555.1,-785.1 560.68,-791.71 567.51,-797.37 574.89,-802.21" />
<polygon fill="black" stroke="black" points="572.79,-805.03 583.18,-807.12 576.36,-799.01 572.79,-805.03" />
<text xml:space="preserve" text-anchor="middle" x="480.4" y="-568.16" font-family="Helvetica,sans-Serif" font-size="8.00">all done</text>
</g>

<g id="node18" class="node">
<title>prechecks</title>
<polygon fill="#e8f4f8" stroke="#2980b9" points="731.6,-781.4 558.8,-781.4 558.8,-734.6 731.6,-734.6 731.6,-781.4" />
<text xml:space="preserve" text-anchor="middle" x="645.2" y="-765.38" font-family="Helvetica,sans-Serif" font-size="10.00">Prechecks:</text>
<text xml:space="preserve" text-anchor="middle" x="645.2" y="-754.12" font-family="Helvetica,sans-Serif" font-size="10.00">- target _style_fix path is free</text>
<text xml:space="preserve" text-anchor="middle" x="645.2" y="-742.88" font-family="Helvetica,sans-Serif" font-size="10.00">- primary tree is clean</text>
</g>

<g id="edge21" class="edge">
<title>fix_foreach-&gt;prechecks</title>
<path fill="none" stroke="black" d="M645.2,-807.75C645.2,-803.17 645.2,-798.16 645.2,-793.16" />
<polygon fill="black" stroke="black" points="648.7,-793.17 645.2,-783.17 641.7,-793.17 648.7,-793.17" />
</g>

<g id="node19" class="node">
<title>create_wt</title>
<polygon fill="#e8f4f8" stroke="#2980b9" points="731.6,-706.4 558.8,-706.4 558.8,-659.6 731.6,-659.6 731.6,-706.4" />
<text xml:space="preserve" text-anchor="middle" x="645.2" y="-690.38" font-family="Helvetica,sans-Serif" font-size="10.00">git worktree add</text>
<text xml:space="preserve" text-anchor="middle" x="645.2" y="-679.13" font-family="Helvetica,sans-Serif" font-size="10.00">-b refactor/style</text>
<text xml:space="preserve" text-anchor="middle" x="645.2" y="-667.88" font-family="Helvetica,sans-Serif" font-size="10.00">{project}_style_fix</text>
</g>

<g id="edge22" class="edge">
<title>prechecks-&gt;create_wt</title>
<path fill="none" stroke="black" d="M645.2,-734.27C645.2,-729.07 645.2,-723.46 645.2,-717.93" />
<polygon fill="black" stroke="black" points="648.7,-718.35 645.2,-708.35 641.7,-718.35 648.7,-718.35" />
</g>

<g id="node20" class="node">
<title>mv_eval</title>
<polygon fill="#e8f4f8" stroke="#2980b9" points="731.6,-632.8 558.8,-632.8 558.8,-593.2 731.6,-593.2 731.6,-632.8" />
<text xml:space="preserve" text-anchor="middle" x="645.2" y="-615.5" font-family="Helvetica,sans-Serif" font-size="10.00">export pending markdown</text>
<text xml:space="preserve" text-anchor="middle" x="645.2" y="-604.25" font-family="Helvetica,sans-Serif" font-size="10.00">→ scratch evaluation</text>
</g>

<g id="edge23" class="edge">
<title>create_wt-&gt;mv_eval</title>
<path fill="none" stroke="black" d="M645.2,-659.3C645.2,-654.48 645.2,-649.34 645.2,-644.31" />
<polygon fill="black" stroke="black" points="648.7,-644.46 645.2,-634.46 641.7,-644.46 648.7,-644.46" />
</g>

<g id="node21" class="node">
<title>claude_fix</title>
<polygon fill="#d5f5e3" stroke="#27ae60" points="731.6,-573.4 558.8,-573.4 558.8,-526.6 731.6,-526.6 731.6,-573.4" />
<text xml:space="preserve" text-anchor="middle" x="645.2" y="-557.38" font-family="Helvetica,sans-Serif" font-size="10.00">Pass 1 (apply): launch agent</text>
<text xml:space="preserve" text-anchor="middle" x="645.2" y="-546.12" font-family="Helvetica,sans-Serif" font-size="10.00">(fixes, cargo mend, clippy,</text>
<text xml:space="preserve" text-anchor="middle" x="645.2" y="-534.88" font-family="Helvetica,sans-Serif" font-size="10.00">tests, style review)</text>
</g>

<g id="edge24" class="edge">
<title>mv_eval-&gt;claude_fix</title>
<path fill="none" stroke="black" d="M645.2,-592.72C645.2,-590.26 645.2,-587.71 645.2,-585.11" />
<polygon fill="black" stroke="black" points="648.7,-585.27 645.2,-575.27 641.7,-585.27 648.7,-585.27" />
</g>

<g id="node22" class="node">
<title>verify_fix</title>
<polygon fill="#d5f5e3" stroke="#27ae60" points="731.6,-493.4 558.8,-493.4 558.8,-446.6 731.6,-446.6 731.6,-493.4" />
<text xml:space="preserve" text-anchor="middle" x="645.2" y="-477.38" font-family="Helvetica,sans-Serif" font-size="10.00">Pass 2 (verify): same agent</text>
<text xml:space="preserve" text-anchor="middle" x="645.2" y="-466.12" font-family="Helvetica,sans-Serif" font-size="10.00">re-checks fix vs Fix Summary,</text>
<text xml:space="preserve" text-anchor="middle" x="645.2" y="-454.88" font-family="Helvetica,sans-Serif" font-size="10.00">corrects + updates summary</text>
</g>

<g id="edge25" class="edge">
<title>claude_fix-&gt;verify_fix</title>
<path fill="none" stroke="black" d="M645.2,-526.43C645.2,-519.74 645.2,-512.3 645.2,-505.08" />
<polygon fill="black" stroke="black" points="648.7,-505.19 645.2,-495.19 641.7,-505.19 648.7,-505.19" />
<text xml:space="preserve" text-anchor="middle" x="621.58" y="-511.24" font-family="Helvetica,sans-Serif" font-size="8.00">Fix Summary</text>
</g>

<g id="node24" class="node">
<title>fix_fail</title>
<polygon fill="#fadbd8" stroke="#e74c3c" points="784.8,-409.8 655.2,-409.8 655.2,-370.2 784.8,-370.2 784.8,-409.8" />
<text xml:space="preserve" text-anchor="middle" x="720" y="-391.75" font-family="Helvetica,sans-Serif" font-size="10.00">Failure: finalize</text>
<text xml:space="preserve" text-anchor="middle" x="720" y="-380.5" font-family="Helvetica,sans-Serif" font-size="10.00">or keep pending</text>
</g>

<g id="edge26" class="edge">
<title>claude_fix-&gt;fix_fail</title>
<path fill="none" stroke="black" d="M705.57,-526.36C717.44,-518.84 728.36,-509.22 735.3,-497.1 748.63,-473.81 742.32,-443.16 734.14,-420.62" />
<polygon fill="black" stroke="black" points="737.41,-419.38 730.47,-411.37 730.9,-421.96 737.41,-419.38" />
<text xml:space="preserve" text-anchor="middle" x="767.29" y="-479.64" font-family="Helvetica,sans-Serif" font-size="8.00">no summary /</text>
<text xml:space="preserve" text-anchor="middle" x="767.29" y="-470.64" font-family="Helvetica,sans-Serif" font-size="8.00">timeout</text>
</g>

<g id="node23" class="node">
<title>fix_ok</title>
<polygon fill="#d5f5e3" stroke="#27ae60" points="635.2,-409.8 505.6,-409.8 505.6,-370.2 635.2,-370.2 635.2,-409.8" />
<text xml:space="preserve" text-anchor="middle" x="570.4" y="-391.75" font-family="Helvetica,sans-Serif" font-size="10.00">Worktree ready</text>
<text xml:space="preserve" text-anchor="middle" x="570.4" y="-380.5" font-family="Helvetica,sans-Serif" font-size="10.00">for review</text>
</g>

<g id="edge27" class="edge">
<title>verify_fix-&gt;fix_ok</title>
<path fill="none" stroke="black" d="M623.16,-446.43C614.91,-437.61 605.46,-427.5 596.85,-418.29" />
<polygon fill="black" stroke="black" points="599.67,-416.17 590.28,-411.26 594.55,-420.96 599.67,-416.17" />
<text xml:space="preserve" text-anchor="middle" x="592.86" y="-429.86" font-family="Helvetica,sans-Serif" font-size="8.00">build ok</text>
</g>

<g id="edge28" class="edge">
<title>verify_fix-&gt;fix_fail</title>
<path fill="none" stroke="black" d="M667.24,-446.43C675.49,-437.61 684.94,-427.5 693.55,-418.29" />
<polygon fill="black" stroke="black" points="695.85,-420.96 700.12,-411.26 690.73,-416.17 695.85,-420.96" />
<text xml:space="preserve" text-anchor="middle" x="662.29" y="-429.86" font-family="Helvetica,sans-Serif" font-size="8.00">build broken</text>
</g>

<g id="edge29" class="edge">
<title>fix_ok-&gt;report</title>
<path fill="none" stroke="black" d="M547.49,-369.8C515.12,-341.24 456.02,-289.11 420.86,-258.11" />
<polygon fill="black" stroke="black" points="423.42,-255.7 413.61,-251.71 418.79,-260.95 423.42,-255.7" />
</g>

<g id="edge30" class="edge">
<title>fix_fail-&gt;report</title>
<path fill="none" stroke="black" d="M677.84,-369.8C615.8,-340.06 500.42,-284.77 437.01,-254.38" />
<polygon fill="black" stroke="black" points="438.81,-251.36 428.28,-250.2 435.79,-257.67 438.81,-251.36" />
</g>

<g id="node26" class="node">
<title>review</title>
<polygon fill="#e8f4f8" stroke="#2980b9" points="478.8,-156 306,-156 306,-120 478.8,-120 478.8,-156" />
<text xml:space="preserve" text-anchor="middle" x="392.4" y="-134.12" font-family="Helvetica,sans-Serif" font-size="10.00">/style_fix_review</text>
</g>

<g id="edge31" class="edge">
<title>report-&gt;review</title>
<path fill="none" stroke="black" stroke-dasharray="1,5" d="M392.4,-214.68C392.4,-201.28 392.4,-182.81 392.4,-167.36" />
<polygon fill="black" stroke="black" points="395.9,-167.77 392.4,-157.77 388.9,-167.77 395.9,-167.77" />
<text xml:space="preserve" text-anchor="middle" x="369.9" y="-195.6" font-family="Helvetica,sans-Serif" font-size="8.00">user reviews</text>
<text xml:space="preserve" text-anchor="middle" x="369.9" y="-186.6" font-family="Helvetica,sans-Serif" font-size="8.00">next day</text>
</g>

<g id="node27" class="node">
<title>merge</title>
<polygon fill="#e8f4f8" stroke="#2980b9" points="478.8,-96 306,-96 306,-60 478.8,-60 478.8,-96" />
<text xml:space="preserve" text-anchor="middle" x="392.4" y="-74.13" font-family="Helvetica,sans-Serif" font-size="10.00">/merge_branch</text>
</g>

<g id="edge32" class="edge">
<title>review-&gt;merge</title>
<path fill="none" stroke="black" stroke-dasharray="1,5" d="M392.4,-119.67C392.4,-115.83 392.4,-111.69 392.4,-107.56" />
<polygon fill="black" stroke="black" points="395.9,-107.73 392.4,-97.73 388.9,-107.73 395.9,-107.73" />
</g>

<g id="node28" class="node">
<title>delete_wt</title>
<polygon fill="#e8f4f8" stroke="#2980b9" points="478.8,-36 306,-36 306,0 478.8,0 478.8,-36" />
<text xml:space="preserve" text-anchor="middle" x="392.4" y="-14.12" font-family="Helvetica,sans-Serif" font-size="10.00">/worktree_delete</text>
</g>

<g id="edge33" class="edge">
<title>merge-&gt;delete_wt</title>
<path fill="none" stroke="black" stroke-dasharray="1,5" d="M392.4,-59.67C392.4,-55.83 392.4,-51.69 392.4,-47.56" />
<polygon fill="black" stroke="black" points="395.9,-47.73 392.4,-37.73 388.9,-47.73 395.9,-47.73" />
</g>
<text x="-10.0" y="-883.4" font-family="Helvetica,sans-Serif" font-size="9" fill="#7f8c8d">Phase 1: Clean + Rebuild</text><text x="222.3" y="-883.4" font-family="Helvetica,sans-Serif" font-size="9" fill="#7f8c8d">Phase 2: Style Evaluation</text><text x="495.6" y="-883.4" font-family="Helvetica,sans-Serif" font-size="9" fill="#7f8c8d">Phase 3: Style-Fix Worktrees</text><text x="296.0" y="-188.0" font-family="Helvetica,sans-Serif" font-size="9" fill="#7f8c8d">Post-Clean-fix (Manual)</text></g>
</svg>